<svg width="512" height="512" viewBox="0 0 512 512" fill="none" xmlns="http://www.w3.org/2000/svg">
  <!-- Background Circle -->
  <circle cx="256" cy="256" r="240" fill="url(#gradient1)" />
  
  <!-- Gradient Definitions -->
  <defs>
    <linearGradient id="gradient1" x1="0%" y1="0%" x2="100%" y2="100%">
      <stop offset="0%" style="stop-color:#667eea;stop-opacity:1" />
      <stop offset="100%" style="stop-color:#764ba2;stop-opacity:1" />
    </linearGradient>
    <linearGradient id="gradient2" x1="0%" y1="0%" x2="100%" y2="100%">
      <stop offset="0%" style="stop-color:#00d9ff;stop-opacity:1" />
      <stop offset="100%" style="stop-color:#0099cc;stop-opacity:1" />
    </linearGradient>
    <linearGradient id="gradient3" x1="0%" y1="0%" x2="100%" y2="100%">
      <stop offset="0%" style="stop-color:#ff006e;stop-opacity:1" />
      <stop offset="100%" style="stop-color:#cc0055;stop-opacity:1" />
    </linearGradient>
  </defs>
  
  <!-- 3D Grid Lines -->
  <g stroke="#ffffff" stroke-width="8" stroke-linecap="round" opacity="0.3">
    <!-- Vertical lines -->
    <line x1="180" y1="120" x2="180" y2="380" />
    <line x1="256" y1="100" x2="256" y2="400" />
    <line x1="332" y1="120" x2="332" y2="380" />
    
    <!-- Horizontal lines -->
    <line x1="140" y1="200" x2="372" y2="200" />
    <line x1="120" y1="256" x2="392" y2="256" />
    <line x1="140" y1="312" x2="372" y2="312" />
  </g>
  
  <!-- 3D Sphere (O) -->
  <circle cx="180" cy="180" r="35" fill="url(#gradient2)" opacity="0.9"/>
  <circle cx="180" cy="180" r="35" fill="none" stroke="#ffffff" stroke-width="3"/>
  <ellipse cx="180" cy="180" rx="20" ry="8" fill="#ffffff" opacity="0.3"/>
  
  <!-- 3D Cube (X) -->
  <g transform="translate(320, 160)">
    <!-- Front face -->
    <path d="M -25 -25 L 25 -25 L 25 25 L -25 25 Z" fill="url(#gradient3)" opacity="0.9"/>
    <!-- Top face -->
    <path d="M -25 -25 L 0 -40 L 50 -40 L 25 -25 Z" fill="#ff006e" opacity="0.7"/>
    <!-- Right face -->
    <path d="M 25 -25 L 50 -40 L 50 10 L 25 25 Z" fill="#cc0055" opacity="0.8"/>
    <!-- Edges -->
    <path d="M -25 -25 L 25 -25 L 25 25 L -25 25 Z" fill="none" stroke="#ffffff" stroke-width="3"/>
  </g>
  
  <!-- Another Sphere -->
  <circle cx="256" cy="320" r="35" fill="url(#gradient2)" opacity="0.9"/>
  <circle cx="256" cy="320" r="35" fill="none" stroke="#ffffff" stroke-width="3"/>
  <ellipse cx="256" cy="320" rx="20" ry="8" fill="#ffffff" opacity="0.3"/>
  
  <!-- 3D Effect Shadow -->
  <ellipse cx="256" cy="450" rx="180" ry="20" fill="#000000" opacity="0.15"/>
</svg>
